<mxfile host="app.diagrams.net" modified="2023-05-25T12:53:30.456Z" agent="Mozilla/5.0 (Windows NT 10.0; Win64; x64) AppleWebKit/537.36 (KHTML, like Gecko) Chrome/112.0.0.0 Safari/537.36 OPR/98.0.0.0 (Edition Yx GX)" version="21.3.4" etag="tyDlQNFAf5bh9gcrhdAw" type="github">
  <diagram name="Страница 1" id="KVNDLom6EFOoCHg9c-ok">
    <mxGraphModel>
      <root>
        <mxCell id="0" />
        <mxCell id="1" parent="0" />
      </root>
    </mxGraphModel>
  </diagram>
</mxfile>
